<?xml version="1.0" encoding="UTF-8"?>
<svg xmlns="http://www.w3.org/2000/svg" xmlns:xlink="http://www.w3.org/1999/xlink" width="153px" height="74px" viewBox="0 0 153 74" version="1.1">
<g id="surface1">
<path style=" stroke:none;fill-rule:evenodd;fill:rgb(84.313725%,17.647059%,11.764706%);fill-opacity:1;" d="M 60.273438 8.671875 C 59.972656 8.792969 59.425781 9.503906 59.0625 10.253906 C 58.699219 11 58.269531 12.183594 58.105469 12.886719 C 57.945312 13.589844 57.742188 15.597656 57.65625 17.351562 C 57.519531 20.210938 57.46875 20.460938 57.1875 19.777344 C 56.875 19.019531 56.875 19.023438 57.011719 20.050781 C 57.113281 20.800781 57.042969 21.179688 56.761719 21.414062 C 56.550781 21.589844 55.917969 21.796875 55.355469 21.871094 C 54.382812 22.003906 54.332031 22.058594 54.199219 23.0625 C 54.121094 23.640625 53.886719 25.320312 53.675781 26.792969 C 53.464844 28.265625 52.886719 32.34375 52.394531 35.851562 C 51.898438 39.359375 51.324219 43.148438 51.109375 44.273438 C 50.898438 45.394531 50.429688 46.886719 50.066406 47.585938 C 49.703125 48.285156 49.035156 49.222656 48.589844 49.671875 C 48.140625 50.121094 47.09375 50.828125 46.261719 51.246094 C 45.433594 51.664062 44.109375 52.144531 43.324219 52.316406 C 42.5 52.496094 40.859375 52.585938 39.445312 52.523438 C 36.996094 52.414062 36.992188 52.417969 37.421875 52.9375 C 37.65625 53.222656 38.253906 53.890625 38.746094 54.421875 C 39.277344 54.992188 40.042969 55.492188 40.632812 55.652344 C 41.183594 55.800781 42.449219 55.925781 43.445312 55.9375 C 44.445312 55.945312 45.949219 55.808594 46.792969 55.636719 C 47.632812 55.464844 48.863281 54.980469 49.527344 54.5625 C 50.1875 54.140625 51.09375 53.382812 51.539062 52.875 C 51.984375 52.367188 52.5625 51.464844 52.828125 50.871094 C 53.089844 50.277344 53.476562 48.71875 53.691406 47.414062 C 53.902344 46.105469 54.183594 44.347656 54.320312 43.507812 C 54.453125 42.664062 54.796875 40.195312 55.078125 38.019531 C 55.363281 35.84375 55.703125 33.492188 55.832031 32.789062 C 55.960938 32.089844 56.207031 30.507812 56.378906 29.28125 C 56.671875 27.179688 56.726562 27.046875 57.304688 27.046875 C 57.640625 27.046875 58.148438 26.925781 58.433594 26.773438 C 58.84375 26.550781 59.015625 26.589844 59.285156 26.960938 C 59.472656 27.21875 59.761719 27.886719 59.925781 28.449219 C 60.085938 29.011719 60.664062 30.359375 61.207031 31.441406 C 61.75 32.523438 62.570312 33.835938 63.035156 34.351562 C 63.5 34.867188 64.535156 35.71875 65.339844 36.246094 C 66.804688 37.199219 66.804688 37.199219 65.179688 39.714844 C 64.289062 41.097656 61.859375 44.871094 59.785156 48.101562 C 57.710938 51.328125 55.574219 54.683594 55.039062 55.558594 C 54.421875 56.558594 54.058594 57.460938 54.058594 57.988281 C 54.058594 58.453125 54.25 59.117188 54.484375 59.460938 C 54.71875 59.808594 55.453125 60.675781 56.117188 61.386719 C 57.320312 62.683594 57.320312 62.683594 57.441406 61.765625 C 57.511719 61.261719 58.035156 60.105469 58.613281 59.195312 C 59.1875 58.285156 59.777344 57.402344 59.917969 57.234375 C 60.0625 57.0625 60.179688 56.863281 60.179688 56.785156 C 60.179688 56.707031 60.8125 55.667969 61.582031 54.476562 C 62.355469 53.285156 63.617188 51.335938 64.386719 50.144531 C 65.160156 48.953125 65.789062 47.914062 65.789062 47.835938 C 65.789062 47.757812 66.019531 47.449219 66.300781 47.148438 C 66.582031 46.847656 66.808594 46.449219 66.808594 46.265625 C 66.808594 46.082031 66.90625 45.929688 67.023438 45.929688 C 67.140625 45.929688 67.371094 45.640625 67.53125 45.285156 C 67.695312 44.925781 67.945312 44.496094 68.085938 44.328125 C 68.230469 44.15625 68.972656 43.042969 69.734375 41.847656 C 71.125 39.679688 71.125 39.679688 69.921875 39.140625 C 69.261719 38.839844 68.261719 38.148438 67.703125 37.601562 C 67.140625 37.054688 66.507812 36.378906 66.292969 36.101562 C 66.078125 35.820312 65.542969 34.847656 65.101562 33.9375 C 64.664062 33.023438 63.957031 31.359375 63.535156 30.238281 C 63.109375 29.113281 62.507812 27.164062 62.195312 25.898438 C 61.726562 24.015625 61.621094 22.84375 61.601562 19.394531 C 61.589844 16.605469 61.699219 14.75 61.925781 13.90625 C 62.113281 13.207031 62.515625 12.113281 62.816406 11.484375 C 63.117188 10.851562 63.5 10.191406 63.667969 10.015625 C 63.832031 9.839844 64.121094 9.6875 64.304688 9.679688 C 64.492188 9.667969 63.953125 9.386719 63.113281 9.054688 C 62.269531 8.71875 61.410156 8.449219 61.199219 8.449219 C 60.988281 8.453125 60.570312 8.550781 60.273438 8.671875 M 79.132812 12.183594 C 78.0625 13.832031 76.210938 16.667969 75.023438 18.484375 C 73.839844 20.300781 72.757812 22.113281 72.617188 22.507812 C 72.410156 23.109375 72.554688 23.6875 73.519531 26.09375 C 74.152344 27.671875 75 29.695312 75.402344 30.589844 C 76.132812 32.21875 76.132812 32.21875 76.773438 31.226562 C 77.378906 30.292969 77.394531 30.179688 77.0625 29.21875 C 76.828125 28.546875 76.753906 27.613281 76.84375 26.492188 C 76.917969 25.554688 77.171875 24.410156 77.40625 23.941406 C 77.644531 23.476562 78.253906 22.402344 78.761719 21.5625 C 79.273438 20.71875 79.773438 19.917969 79.878906 19.777344 C 79.980469 19.636719 80.984375 18.113281 82.109375 16.390625 C 83.230469 14.667969 84.148438 13.144531 84.148438 13.007812 C 84.148438 12.871094 84.257812 12.757812 84.386719 12.757812 C 84.519531 12.757812 84.699219 12.53125 84.785156 12.25 C 84.875 11.96875 85.125 11.566406 85.339844 11.351562 C 85.554688 11.136719 85.671875 10.8125 85.601562 10.628906 C 85.53125 10.445312 84.65625 10.144531 83.652344 9.953125 C 82.652344 9.765625 81.773438 9.515625 81.699219 9.398438 C 81.628906 9.28125 81.460938 9.1875 81.328125 9.1875 C 81.195312 9.1875 80.207031 10.535156 79.132812 12.183594 M 87.824219 13.722656 C 87.390625 14.386719 85.917969 16.628906 84.558594 18.710938 C 83.195312 20.792969 82.117188 22.597656 82.160156 22.722656 C 82.203125 22.851562 82.484375 22.582031 82.785156 22.128906 C 83.089844 21.675781 84.191406 19.988281 85.234375 18.371094 C 86.277344 16.757812 87.550781 14.777344 88.058594 13.96875 C 88.570312 13.164062 88.902344 12.507812 88.800781 12.511719 C 88.695312 12.511719 88.257812 13.058594 87.824219 13.722656 M 89.171875 17.671875 C 88.144531 19.25 86.699219 21.492188 85.953125 22.65625 C 85.207031 23.820312 84.652344 24.828125 84.71875 24.894531 C 84.785156 24.960938 86.214844 22.859375 87.898438 20.226562 C 89.578125 17.59375 91.039062 15.292969 91.136719 15.117188 C 91.238281 14.945312 91.253906 14.800781 91.175781 14.800781 C 91.097656 14.800781 90.195312 16.09375 89.171875 17.671875 M 93.3125 17.128906 C 93.152344 17.425781 91.933594 19.351562 90.605469 21.402344 C 89.277344 23.457031 87.957031 25.460938 87.675781 25.855469 C 87.394531 26.253906 87.214844 26.628906 87.277344 26.691406 C 87.339844 26.753906 87.519531 26.652344 87.671875 26.46875 C 87.828125 26.28125 88.796875 24.816406 89.828125 23.207031 C 90.859375 21.601562 92.242188 19.453125 92.898438 18.4375 C 93.554688 17.417969 93.980469 16.585938 93.847656 16.585938 C 93.714844 16.585938 93.472656 16.832031 93.3125 17.128906 M 142.097656 23.289062 C 141.367188 23.464844 141.019531 23.679688 141.03125 23.957031 C 141.042969 24.183594 141.132812 24.578125 141.234375 24.832031 C 141.394531 25.246094 141.476562 25.21875 142.042969 24.570312 C 142.390625 24.171875 142.832031 23.648438 143.023438 23.40625 C 143.214844 23.164062 143.328125 22.980469 143.277344 22.996094 C 143.226562 23.011719 142.695312 23.144531 142.097656 23.289062 M 103.019531 24.074219 C 103.019531 24.40625 102.886719 25.066406 102.722656 25.542969 C 102.558594 26.019531 102.300781 26.496094 102.148438 26.605469 C 101.996094 26.710938 101.289062 26.726562 100.574219 26.644531 C 99.277344 26.488281 99.277344 26.488281 98.710938 29.382812 C 98.402344 30.976562 98.085938 32.582031 98.011719 32.953125 C 97.878906 33.585938 97.945312 33.640625 98.980469 33.800781 C 99.589844 33.898438 100.289062 34.03125 100.53125 34.101562 C 100.828125 34.183594 101.054688 34.027344 101.214844 33.636719 C 101.347656 33.3125 101.523438 32.625 101.609375 32.113281 C 101.753906 31.203125 101.777344 31.1875 102.835938 31.253906 C 103.433594 31.292969 104.167969 31.164062 104.484375 30.964844 C 104.851562 30.738281 105.0625 30.355469 105.0625 29.914062 C 105.066406 29.53125 105.160156 29.074219 105.269531 28.898438 C 105.410156 28.675781 105.605469 28.855469 105.902344 29.472656 C 106.136719 29.964844 106.429688 30.367188 106.550781 30.367188 C 106.675781 30.367188 106.847656 29.933594 106.9375 29.410156 C 107.023438 28.882812 107.09375 28.136719 107.097656 27.75 C 107.101562 27.089844 107.03125 27.046875 105.984375 27.046875 C 105.324219 27.046875 104.742188 26.898438 104.5625 26.679688 C 104.394531 26.476562 104.285156 26.105469 104.320312 25.851562 C 104.355469 25.597656 104.171875 24.960938 103.910156 24.433594 C 103.648438 23.90625 103.34375 23.476562 103.226562 23.476562 C 103.113281 23.476562 103.019531 23.746094 103.019531 24.074219 M 8.441406 26.164062 C 8.207031 27.851562 8.203125 28.453125 8.433594 28.730469 C 8.597656 28.925781 8.996094 29.089844 9.320312 29.089844 C 9.660156 29.089844 9.96875 28.898438 10.046875 28.644531 C 10.121094 28.398438 10.347656 27.566406 10.550781 26.792969 C 10.753906 26.019531 10.992188 25.203125 11.085938 24.972656 C 11.214844 24.652344 11.046875 24.519531 10.324219 24.386719 C 9.816406 24.289062 9.253906 24.15625 9.074219 24.085938 C 8.839844 23.996094 8.664062 24.578125 8.441406 26.164062 M 118.320312 25.96875 C 118.320312 26.5 118.132812 27.199219 117.90625 27.527344 C 117.539062 28.054688 117.328125 28.105469 115.933594 28.027344 C 114.378906 27.941406 114.378906 27.941406 114.195312 29.089844 C 114.09375 29.722656 113.890625 30.898438 113.742188 31.707031 C 113.597656 32.511719 113.359375 33.804688 113.21875 34.574219 C 113.078125 35.347656 112.855469 36.582031 112.722656 37.320312 C 112.589844 38.054688 112.117188 40.726562 111.667969 43.25 C 111.222656 45.777344 110.796875 48.230469 110.730469 48.703125 C 110.648438 49.265625 110.726562 49.636719 110.957031 49.785156 C 111.148438 49.90625 111.722656 50.007812 112.226562 50.011719 C 113.148438 50.015625 113.148438 50.015625 113.453125 48.035156 C 113.621094 46.949219 113.863281 45.65625 113.988281 45.164062 C 114.113281 44.675781 114.523438 42.378906 114.898438 40.0625 C 115.273438 37.746094 115.710938 35.105469 115.867188 34.191406 C 116.023438 33.28125 116.265625 32.558594 116.40625 32.589844 C 116.546875 32.621094 116.730469 33.339844 116.816406 34.1875 C 116.917969 35.210938 117.28125 36.359375 117.90625 37.625 C 118.488281 38.800781 119.238281 39.859375 119.878906 40.410156 C 120.472656 40.917969 121.554688 41.488281 122.421875 41.746094 C 123.25 41.996094 123.929688 42.292969 123.929688 42.40625 C 123.929688 42.519531 123.839844 42.613281 123.730469 42.613281 C 123.621094 42.613281 123.316406 42.972656 123.058594 43.414062 C 122.796875 43.851562 122.484375 44.628906 122.359375 45.136719 C 122.238281 45.644531 122.085938 46.632812 122.023438 47.335938 C 121.960938 48.035156 121.835938 49.507812 121.746094 50.609375 C 121.578125 52.605469 121.578125 52.605469 122.59375 52.085938 C 123.15625 51.800781 123.667969 51.417969 123.738281 51.238281 C 123.808594 51.054688 124 49.472656 124.164062 47.71875 C 124.328125 45.964844 124.570312 43.847656 124.699219 43.015625 C 124.863281 41.953125 125.164062 41.21875 125.707031 40.542969 C 126.132812 40.015625 126.480469 39.515625 126.480469 39.4375 C 126.480469 39.359375 126.277344 39.292969 126.035156 39.292969 C 125.789062 39.289062 125.1875 39.144531 124.695312 38.964844 C 124.203125 38.785156 123.445312 38.449219 123.011719 38.214844 C 122.578125 37.980469 121.859375 37.378906 121.417969 36.878906 C 120.980469 36.375 120.386719 35.515625 120.109375 34.964844 C 119.828125 34.414062 119.429688 33.464844 119.222656 32.859375 C 119.015625 32.25 118.773438 31.125 118.683594 30.355469 C 118.59375 29.589844 118.640625 28.316406 118.789062 27.527344 C 118.933594 26.742188 118.992188 25.851562 118.914062 25.550781 C 118.835938 25.25 118.667969 25.007812 118.546875 25.007812 C 118.421875 25.007812 118.320312 25.441406 118.320312 25.96875 M 40.800781 25.335938 C 40.800781 25.417969 41.53125 26.953125 42.425781 28.753906 C 43.320312 30.550781 44.371094 32.769531 44.765625 33.683594 C 45.15625 34.59375 45.574219 35.449219 45.6875 35.582031 C 45.808594 35.722656 45.898438 35.578125 45.898438 35.253906 C 45.898438 34.9375 45.691406 34.253906 45.433594 33.734375 C 45.175781 33.214844 44.242188 31.355469 43.355469 29.601562 C 42.46875 27.84375 41.53125 26.136719 41.273438 25.800781 C 41.011719 25.46875 40.800781 25.257812 40.800781 25.335938 M 130.941406 25.652344 C 130.800781 25.703125 130.21875 25.867188 129.644531 26.011719 C 129.070312 26.160156 128.371094 26.480469 128.089844 26.726562 C 127.808594 26.972656 127.445312 27.425781 127.285156 27.734375 C 127.121094 28.039062 126.988281 28.578125 126.988281 28.929688 C 126.988281 29.472656 127.101562 29.5625 127.753906 29.542969 C 128.175781 29.53125 128.519531 29.417969 128.519531 29.289062 C 128.519531 29.160156 128.835938 29.09375 129.222656 29.136719 C 129.886719 29.214844 129.953125 29.347656 130.570312 31.898438 C 131.164062 34.351562 131.269531 34.582031 131.84375 34.644531 C 132.191406 34.679688 133.046875 34.5625 133.746094 34.378906 C 134.636719 34.144531 134.996094 33.929688 134.929688 33.671875 C 134.882812 33.46875 134.675781 32.609375 134.480469 31.769531 C 134.28125 30.925781 134.015625 29.894531 133.894531 29.472656 C 133.773438 29.050781 133.523438 27.988281 133.339844 27.113281 C 133.003906 25.515625 133.003906 25.515625 132.101562 25.539062 C 131.605469 25.546875 131.082031 25.601562 130.941406 25.652344 M 21.824219 26.1875 C 21.699219 26.511719 21.429688 26.574219 20.585938 26.472656 C 19.992188 26.398438 19.316406 26.261719 19.085938 26.164062 C 18.746094 26.023438 18.585938 26.257812 18.269531 27.347656 C 18.054688 28.097656 17.644531 29.59375 17.355469 30.679688 C 17.066406 31.765625 16.828125 32.710938 16.828125 32.785156 C 16.828125 32.859375 16.988281 32.917969 17.183594 32.917969 C 17.386719 32.917969 17.609375 32.535156 17.707031 32.019531 C 17.859375 31.203125 17.933594 31.140625 18.5625 31.28125 C 18.941406 31.371094 19.605469 31.496094 20.039062 31.5625 C 20.722656 31.671875 20.867188 31.589844 21.113281 30.960938 C 21.269531 30.5625 21.503906 29.777344 21.640625 29.21875 C 21.773438 28.65625 21.957031 27.652344 22.050781 26.984375 C 22.140625 26.316406 22.164062 25.773438 22.101562 25.773438 C 22.035156 25.773438 21.914062 25.960938 21.824219 26.1875 M 91.140625 26.464844 C 90.933594 26.789062 90.964844 27.078125 91.269531 27.609375 C 91.492188 27.996094 91.816406 28.371094 91.992188 28.441406 C 92.207031 28.523438 92.308594 28.285156 92.308594 27.699219 C 92.308594 27.222656 92.378906 26.652344 92.464844 26.429688 C 92.578125 26.132812 92.460938 26.027344 92.015625 26.027344 C 91.6875 26.027344 91.292969 26.222656 91.140625 26.464844 M 31.382812 26.761719 C 31.042969 26.855469 30.71875 27.074219 30.660156 27.246094 C 30.605469 27.417969 30.664062 27.558594 30.792969 27.558594 C 30.921875 27.558594 31.160156 27.851562 31.324219 28.207031 C 31.488281 28.566406 31.621094 28.972656 31.621094 29.117188 C 31.621094 29.257812 31.519531 29.3125 31.398438 29.238281 C 31.277344 29.164062 31 29.300781 30.78125 29.542969 C 30.566406 29.785156 30.195312 30.5 29.957031 31.132812 C 29.722656 31.761719 29.207031 32.976562 28.816406 33.828125 C 28.425781 34.679688 27.730469 35.691406 27.277344 36.074219 C 26.820312 36.457031 26.121094 36.835938 25.71875 36.917969 C 25.316406 37 24.992188 37.136719 24.996094 37.222656 C 25 37.3125 25.441406 37.875 25.976562 38.476562 C 26.730469 39.320312 27.011719 39.496094 27.210938 39.242188 C 27.355469 39.0625 27.933594 37.921875 28.496094 36.710938 C 29.058594 35.5 29.722656 34.394531 29.972656 34.253906 C 30.226562 34.113281 30.863281 34.054688 31.394531 34.128906 C 32.050781 34.214844 32.480469 34.136719 32.738281 33.875 C 32.945312 33.667969 33.21875 33.109375 33.339844 32.632812 C 33.527344 31.90625 33.691406 31.757812 34.375 31.6875 C 34.941406 31.632812 35.1875 31.476562 35.183594 31.179688 C 35.183594 30.941406 34.855469 30.175781 34.460938 29.472656 C 34.066406 28.769531 33.523438 27.824219 33.253906 27.367188 C 32.988281 26.914062 32.59375 26.550781 32.386719 26.566406 C 32.175781 26.578125 31.722656 26.667969 31.382812 26.761719 M 15.054688 39.234375 C 14.910156 39.757812 14.390625 41.621094 13.898438 43.367188 C 13.316406 45.441406 13.09375 46.632812 13.257812 46.796875 C 13.394531 46.933594 13.558594 46.992188 13.621094 46.929688 C 13.683594 46.867188 13.960938 45.980469 14.234375 44.957031 C 14.507812 43.933594 14.796875 43.03125 14.878906 42.953125 C 14.957031 42.871094 15.773438 42.949219 16.691406 43.121094 C 17.609375 43.296875 18.359375 43.539062 18.359375 43.664062 C 18.359375 43.789062 18.539062 43.890625 18.753906 43.890625 C 18.972656 43.890625 19.304688 44.253906 19.488281 44.699219 C 19.746094 45.3125 19.796875 46.539062 19.695312 49.761719 C 19.621094 52.101562 19.644531 54.445312 19.742188 54.972656 C 19.863281 55.609375 20.285156 56.289062 21.007812 57.015625 C 21.613281 57.621094 22.652344 58.3125 23.351562 58.574219 C 24.042969 58.832031 24.664062 59.121094 24.734375 59.210938 C 24.804688 59.300781 25.285156 59.324219 25.796875 59.261719 C 26.625 59.164062 26.867188 58.949219 27.878906 57.425781 C 28.507812 56.476562 29.210938 55.152344 29.4375 54.484375 C 29.664062 53.8125 29.792969 53.207031 29.722656 53.136719 C 29.652344 53.0625 29.390625 53.382812 29.140625 53.839844 C 28.890625 54.296875 28.414062 54.953125 28.078125 55.300781 C 27.539062 55.855469 27.332031 55.910156 26.292969 55.753906 C 25.648438 55.65625 24.542969 55.296875 23.84375 54.949219 C 23.140625 54.605469 22.320312 54.117188 22.015625 53.863281 C 21.710938 53.613281 21.222656 53.019531 20.929688 52.539062 C 20.4375 51.730469 20.402344 51.289062 20.402344 46.015625 C 20.398438 40.363281 20.398438 40.363281 19.617188 39.703125 C 19.183594 39.339844 18.523438 38.980469 18.148438 38.90625 C 17.773438 38.828125 17.113281 38.65625 16.683594 38.523438 C 16.253906 38.386719 15.769531 38.277344 15.609375 38.277344 C 15.453125 38.277344 15.203125 38.707031 15.054688 39.234375 M 96.542969 39.839844 C 96.476562 40.171875 96.367188 40.789062 96.308594 41.210938 C 96.246094 41.632812 95.949219 43.175781 95.648438 44.644531 C 95.347656 46.113281 95.15625 47.460938 95.226562 47.644531 C 95.296875 47.824219 95.730469 47.976562 96.191406 47.980469 C 96.652344 47.984375 97.226562 48.140625 97.472656 48.328125 C 97.71875 48.515625 97.921875 48.933594 97.921875 49.261719 C 97.921875 49.589844 97.777344 50.550781 97.605469 51.402344 C 97.433594 52.253906 97.15625 53.09375 96.988281 53.265625 C 96.820312 53.441406 96.453125 53.585938 96.171875 53.585938 C 95.894531 53.585938 95.109375 53.476562 94.433594 53.347656 C 93.757812 53.214844 92.457031 52.992188 91.546875 52.847656 C 90.632812 52.707031 88.855469 52.402344 87.59375 52.171875 C 86.332031 51.941406 85.011719 51.570312 84.660156 51.347656 C 84.046875 50.960938 84.035156 50.960938 84.390625 51.4375 C 84.59375 51.707031 85.464844 52.625 86.328125 53.476562 C 87.898438 55.023438 87.898438 55.023438 90.550781 55.34375 C 92.007812 55.515625 93.832031 55.785156 94.605469 55.933594 C 95.375 56.085938 96.351562 56.25 96.773438 56.296875 C 97.191406 56.34375 97.996094 56.414062 98.558594 56.453125 C 99.484375 56.515625 99.613281 56.445312 99.960938 55.695312 C 100.171875 55.242188 100.398438 54.875 100.46875 54.878906 C 100.539062 54.878906 100.964844 55.378906 101.410156 55.988281 C 102.195312 57.054688 102.285156 57.101562 103.960938 57.28125 C 104.914062 57.382812 105.808594 57.535156 105.945312 57.617188 C 106.082031 57.699219 106.625 57.738281 107.15625 57.699219 C 107.6875 57.660156 108.121094 57.730469 108.121094 57.847656 C 108.121094 57.96875 109.296875 58.207031 110.734375 58.378906 C 112.171875 58.550781 113.714844 58.691406 114.164062 58.691406 C 114.890625 58.691406 115.011719 58.582031 115.257812 57.734375 C 115.40625 57.207031 115.601562 56.242188 115.683594 55.589844 C 115.816406 54.5625 115.722656 54.203125 115.019531 52.972656 C 114.570312 52.1875 114.113281 51.542969 114.003906 51.542969 C 113.894531 51.542969 113.738281 52.265625 113.65625 53.144531 C 113.574219 54.023438 113.429688 54.933594 113.339844 55.167969 C 113.25 55.40625 112.984375 55.636719 112.753906 55.679688 C 112.519531 55.726562 111.699219 55.6875 110.925781 55.59375 C 110.152344 55.503906 108.605469 55.300781 107.484375 55.144531 C 106.359375 54.992188 104.695312 54.753906 103.785156 54.617188 C 102.875 54.480469 101.609375 54.292969 100.980469 54.199219 C 100.347656 54.105469 99.675781 53.902344 99.484375 53.75 C 99.230469 53.550781 99.175781 53.09375 99.277344 52.089844 C 99.398438 50.914062 99.332031 50.589844 98.835938 49.914062 C 98.253906 49.121094 98.253906 49.121094 98.789062 46.191406 C 99.226562 43.78125 99.40625 43.242188 99.796875 43.167969 C 100.054688 43.117188 100.382812 43.191406 100.519531 43.328125 C 100.660156 43.464844 101.21875 43.519531 101.765625 43.445312 C 102.386719 43.363281 102.910156 43.4375 103.15625 43.644531 C 103.488281 43.917969 103.625 43.902344 103.96875 43.558594 C 104.199219 43.332031 104.464844 42.539062 104.566406 41.792969 C 104.664062 41.050781 104.671875 40.367188 104.585938 40.273438 C 104.496094 40.179688 103.21875 39.976562 101.746094 39.820312 C 100.273438 39.664062 98.527344 39.46875 97.867188 39.386719 C 96.757812 39.246094 96.660156 39.277344 96.542969 39.839844 M 133.773438 41.34375 C 133.222656 41.617188 132.746094 41.871094 132.707031 41.910156 C 132.671875 41.945312 132.5625 42.292969 132.464844 42.679688 C 132.316406 43.273438 132.371094 43.378906 132.816406 43.378906 C 133.214844 43.378906 133.402344 43.613281 133.578125 44.335938 C 133.707031 44.863281 134.066406 46.328125 134.382812 47.589844 C 134.699219 48.851562 135.007812 50.117188 135.066406 50.398438 C 135.152344 50.792969 134.914062 51.046875 133.992188 51.53125 C 133.335938 51.875 132.652344 52.390625 132.46875 52.679688 C 132.195312 53.109375 132.195312 53.476562 132.46875 54.734375 C 132.648438 55.578125 132.921875 56.582031 133.074219 56.96875 C 133.320312 57.585938 133.484375 57.667969 134.441406 57.65625 C 135.042969 57.648438 137.253906 57.378906 139.359375 57.058594 C 141.460938 56.738281 143.382812 56.386719 143.628906 56.277344 C 143.875 56.171875 144.25 56.152344 144.46875 56.234375 C 144.683594 56.316406 145.054688 56.285156 145.296875 56.164062 C 145.535156 56.042969 146.269531 55.816406 146.929688 55.664062 C 147.589844 55.507812 148.507812 55.144531 148.96875 54.855469 C 149.8125 54.328125 149.8125 54.328125 148.792969 54.476562 C 148.230469 54.558594 147.140625 54.734375 146.371094 54.867188 C 145.597656 55 143.820312 55.292969 142.421875 55.519531 C 141.019531 55.742188 139.800781 55.972656 139.714844 56.027344 C 139.625 56.082031 138.949219 56.148438 138.214844 56.171875 C 137.132812 56.210938 136.820312 56.128906 136.589844 55.734375 C 136.433594 55.464844 136.175781 54.726562 136.011719 54.097656 C 135.847656 53.464844 135.640625 52.484375 135.546875 51.914062 C 135.414062 51.097656 135.472656 50.796875 135.835938 50.476562 C 136.089844 50.253906 136.792969 49.988281 137.398438 49.886719 C 138.003906 49.789062 138.554688 49.566406 138.621094 49.394531 C 138.6875 49.21875 138.390625 47.652344 137.964844 45.910156 C 137.535156 44.167969 137.066406 42.3125 136.921875 41.785156 C 136.679688 40.894531 136.59375 40.828125 135.714844 40.835938 C 135.191406 40.84375 134.320312 41.070312 133.773438 41.34375 M 42.96875 42.160156 C 42.546875 42.308594 42.167969 42.457031 42.121094 42.496094 C 42.078125 42.535156 42.464844 43.15625 42.984375 43.878906 C 43.503906 44.605469 44.015625 45.105469 44.117188 44.988281 C 44.21875 44.875 44.429688 44.390625 44.589844 43.914062 C 44.75 43.4375 44.878906 42.777344 44.878906 42.449219 C 44.878906 41.988281 44.746094 41.851562 44.304688 41.867188 C 43.992188 41.878906 43.386719 42.011719 42.96875 42.160156 M 73.707031 47.828125 C 73.28125 48.449219 72.929688 49.132812 72.929688 49.351562 C 72.929688 49.566406 73.21875 50.371094 73.566406 51.136719 C 73.917969 51.90625 74.203125 52.589844 74.203125 52.660156 C 74.203125 52.726562 74.535156 53.511719 74.9375 54.398438 C 75.339844 55.285156 75.964844 56.675781 76.328125 57.484375 C 76.691406 58.296875 77.136719 59.101562 77.320312 59.269531 C 77.5 59.441406 78.222656 60.007812 78.921875 60.53125 C 79.625 61.050781 80.398438 61.675781 80.644531 61.914062 C 80.890625 62.15625 81.089844 62.277344 81.089844 62.191406 C 81.089844 62.101562 80.960938 61.710938 80.800781 61.316406 C 80.640625 60.925781 80.351562 60.230469 80.160156 59.773438 C 79.972656 59.316406 79.644531 58.542969 79.433594 58.050781 C 79.222656 57.558594 78.886719 56.785156 78.6875 56.328125 C 78.488281 55.875 78.078125 54.867188 77.773438 54.097656 C 77.472656 53.324219 77.074219 52.347656 76.890625 51.925781 C 76.710938 51.507812 76.316406 50.617188 76.019531 49.953125 C 75.722656 49.289062 75.480469 48.644531 75.480469 48.523438 C 75.480469 48.40625 75.300781 47.945312 75.078125 47.5 C 74.859375 47.058594 74.632812 46.695312 74.582031 46.695312 C 74.527344 46.695312 74.132812 47.207031 73.707031 47.828125 M 0.765625 51.808594 C 0.765625 52.925781 0.878906 53.628906 1.082031 53.761719 C 1.257812 53.875 1.976562 54.121094 2.675781 54.308594 C 3.378906 54.5 4.324219 54.640625 4.78125 54.628906 C 5.238281 54.617188 5.609375 54.722656 5.609375 54.863281 C 5.609375 55.003906 5.910156 55.117188 6.28125 55.117188 C 6.648438 55.117188 8.054688 55.304688 9.402344 55.53125 C 10.753906 55.757812 11.972656 56.027344 12.113281 56.128906 C 12.253906 56.230469 12.847656 56.261719 13.4375 56.199219 C 14.507812 56.085938 14.507812 56.085938 15.011719 54.390625 C 15.285156 53.457031 15.574219 52.175781 15.648438 51.542969 C 15.789062 50.398438 15.789062 50.398438 15.300781 51.480469 C 14.882812 52.402344 14.699219 52.566406 14.054688 52.566406 C 13.640625 52.566406 12.6875 52.445312 11.941406 52.296875 C 11.195312 52.148438 10.066406 51.925781 9.433594 51.804688 C 8.804688 51.679688 6.910156 51.332031 5.226562 51.035156 C 3.542969 50.734375 1.851562 50.390625 1.464844 50.273438 C 0.765625 50.058594 0.765625 50.058594 0.765625 51.808594 M 119.214844 54.429688 C 118.398438 55.136719 118.265625 55.382812 118.40625 55.941406 C 118.5 56.3125 118.71875 56.765625 118.894531 56.949219 C 119.070312 57.132812 119.488281 57.804688 119.824219 58.433594 C 120.160156 59.066406 120.65625 59.828125 120.925781 60.132812 C 121.199219 60.433594 121.699219 60.734375 122.042969 60.796875 C 122.386719 60.863281 122.71875 60.835938 122.78125 60.730469 C 122.84375 60.628906 123.386719 60.410156 123.988281 60.238281 C 124.589844 60.070312 125.335938 59.738281 125.652344 59.503906 C 126.210938 59.082031 126.195312 59.074219 124.957031 59.160156 C 124.109375 59.21875 123.578125 59.132812 123.363281 58.898438 C 123.183594 58.703125 122.828125 58.207031 122.574219 57.789062 C 122.320312 57.371094 122.050781 56.832031 121.972656 56.585938 C 121.894531 56.339844 121.730469 56.136719 121.605469 56.136719 C 121.480469 56.136719 121.378906 56.035156 121.378906 55.910156 C 121.378906 55.78125 121.113281 55.207031 120.785156 54.632812 C 120.191406 53.585938 120.191406 53.585938 119.214844 54.429688 "/>
<path style=" stroke:none;fill-rule:evenodd;fill:rgb(98.039216%,89.411765%,2.352941%);fill-opacity:1;" d="M 63.496094 9.175781 C 64.125 9.445312 64.492188 9.675781 64.304688 9.683594 C 64.121094 9.691406 63.832031 9.839844 63.667969 10.015625 C 63.5 10.191406 63.117188 10.851562 62.816406 11.484375 C 62.515625 12.113281 62.113281 13.207031 61.925781 13.90625 C 61.699219 14.75 61.589844 16.605469 61.601562 19.394531 C 61.621094 22.84375 61.726562 24.015625 62.195312 25.898438 C 62.507812 27.164062 63.109375 29.113281 63.535156 30.238281 C 63.957031 31.359375 64.664062 33.027344 65.101562 33.9375 C 65.539062 34.851562 66.101562 35.820312 66.355469 36.089844 C 66.605469 36.363281 66.808594 36.691406 66.808594 36.820312 C 66.808594 36.949219 66.632812 36.984375 66.414062 36.902344 C 66.175781 36.8125 66.085938 36.855469 66.183594 37.015625 C 66.273438 37.164062 66.480469 37.234375 66.640625 37.175781 C 66.804688 37.117188 67.417969 37.457031 68.003906 37.929688 C 68.589844 38.40625 69.535156 38.992188 70.101562 39.234375 C 71.128906 39.679688 71.128906 39.679688 69.738281 41.847656 C 68.972656 43.042969 68.230469 44.15625 68.085938 44.328125 C 67.945312 44.496094 67.695312 44.925781 67.53125 45.285156 C 67.371094 45.640625 67.140625 45.929688 67.023438 45.929688 C 66.90625 45.929688 66.808594 46.082031 66.808594 46.265625 C 66.808594 46.449219 66.582031 46.847656 66.300781 47.148438 C 66.019531 47.449219 65.789062 47.757812 65.789062 47.835938 C 65.789062 47.914062 65.160156 48.953125 64.386719 50.144531 C 63.617188 51.335938 62.355469 53.285156 61.582031 54.476562 C 60.8125 55.667969 60.179688 56.707031 60.179688 56.785156 C 60.179688 56.863281 60.0625 57.0625 59.917969 57.234375 C 59.777344 57.402344 59.1875 58.285156 58.613281 59.195312 C 58.035156 60.105469 57.511719 61.261719 57.441406 61.765625 C 57.320312 62.683594 57.320312 62.683594 56.117188 61.386719 C 55.453125 60.675781 54.71875 59.808594 54.484375 59.460938 C 54.25 59.117188 54.058594 58.964844 54.058594 59.132812 C 54.058594 59.296875 55.144531 60.683594 56.464844 62.214844 C 57.789062 63.75 59.0625 65.074219 59.292969 65.164062 C 59.523438 65.25 60.203125 65.324219 60.800781 65.324219 C 61.511719 65.324219 62.179688 65.125 62.726562 64.75 C 63.261719 64.382812 64.65625 62.464844 66.574219 59.457031 C 68.230469 56.859375 70.226562 53.699219 71.011719 52.4375 C 71.800781 51.175781 72.539062 49.96875 72.65625 49.757812 C 72.773438 49.546875 73.007812 49.078125 73.175781 48.714844 C 73.34375 48.355469 73.742188 47.730469 74.058594 47.332031 C 74.632812 46.609375 74.632812 46.609375 75.058594 47.457031 C 75.289062 47.925781 75.480469 48.40625 75.480469 48.523438 C 75.480469 48.644531 75.722656 49.289062 76.019531 49.953125 C 76.316406 50.617188 76.710938 51.507812 76.890625 51.925781 C 77.074219 52.347656 77.472656 53.324219 77.773438 54.097656 C 78.078125 54.867188 78.488281 55.875 78.6875 56.328125 C 78.886719 56.785156 79.207031 57.53125 79.402344 57.988281 C 79.597656 58.445312 79.925781 59.21875 80.132812 59.710938 C 80.339844 60.203125 80.640625 60.925781 80.800781 61.316406 C 80.960938 61.710938 81.089844 62.101562 81.089844 62.191406 C 81.089844 62.277344 80.890625 62.160156 80.644531 61.925781 C 80.398438 61.691406 79.851562 61.238281 79.433594 60.917969 C 79.011719 60.597656 78.488281 60.222656 78.273438 60.085938 C 78.054688 59.949219 78.128906 60.066406 78.429688 60.347656 C 78.734375 60.628906 79.867188 61.574219 80.941406 62.453125 C 82.019531 63.328125 83.175781 64.113281 83.515625 64.199219 C 83.914062 64.300781 84.507812 64.144531 85.214844 63.753906 C 85.808594 63.425781 86.570312 62.753906 86.902344 62.261719 C 87.375 61.558594 87.480469 61.125 87.394531 60.21875 C 87.335938 59.589844 86.644531 57.535156 85.855469 55.652344 C 85.066406 53.773438 84.484375 52.132812 84.5625 52.007812 C 84.640625 51.878906 84.550781 51.589844 84.363281 51.363281 C 84.050781 50.976562 84.074219 50.976562 84.660156 51.347656 C 85.011719 51.570312 86.332031 51.941406 87.59375 52.171875 C 88.855469 52.402344 90.632812 52.707031 91.546875 52.847656 C 92.457031 52.992188 93.757812 53.214844 94.433594 53.347656 C 95.109375 53.476562 95.894531 53.585938 96.171875 53.585938 C 96.453125 53.585938 96.820312 53.441406 96.988281 53.265625 C 97.15625 53.09375 97.433594 52.253906 97.605469 51.402344 C 97.777344 50.550781 97.921875 49.589844 97.921875 49.261719 C 97.921875 48.933594 97.71875 48.515625 97.472656 48.328125 C 97.226562 48.140625 96.652344 47.984375 96.191406 47.980469 C 95.730469 47.976562 95.296875 47.824219 95.226562 47.644531 C 95.15625 47.460938 95.347656 46.113281 95.648438 44.644531 C 95.953125 43.175781 96.277344 41.433594 96.375 40.765625 C 96.472656 40.101562 96.625 39.484375 96.71875 39.394531 C 96.808594 39.304688 98.003906 39.371094 99.378906 39.542969 C 100.75 39.714844 102.503906 39.933594 103.273438 40.027344 C 104.675781 40.195312 104.675781 40.195312 104.585938 41.46875 C 104.535156 42.167969 104.371094 42.972656 104.214844 43.25 C 104.0625 43.53125 103.910156 43.933594 103.878906 44.144531 C 103.84375 44.355469 103.625 45.445312 103.390625 46.570312 C 102.96875 48.609375 102.96875 48.609375 101.402344 48.609375 C 99.859375 48.609375 99.832031 48.625 99.566406 49.441406 C 99.296875 50.269531 99.296875 50.269531 98.800781 49.679688 C 98.46875 49.289062 98.488281 49.359375 98.863281 49.898438 C 99.328125 50.574219 99.398438 50.9375 99.277344 52.089844 C 99.175781 53.09375 99.230469 53.550781 99.484375 53.75 C 99.675781 53.902344 100.347656 54.105469 100.980469 54.199219 C 101.609375 54.292969 102.875 54.480469 103.785156 54.617188 C 104.695312 54.753906 106.359375 54.992188 107.484375 55.144531 C 108.605469 55.300781 110.152344 55.503906 110.925781 55.59375 C 111.699219 55.6875 112.519531 55.726562 112.753906 55.679688 C 112.984375 55.636719 113.25 55.40625 113.339844 55.167969 C 113.429688 54.933594 113.574219 54.023438 113.65625 53.144531 C 113.738281 52.265625 113.890625 51.542969 113.996094 51.542969 C 114.105469 51.542969 114.511719 52.089844 114.902344 52.757812 C 115.292969 53.421875 115.691406 54.371094 115.789062 54.863281 C 115.953125 55.683594 115.96875 55.695312 115.996094 55.03125 C 116.011719 54.628906 115.609375 53.546875 115.089844 52.605469 C 114.578125 51.671875 113.988281 50.707031 113.777344 50.460938 C 113.53125 50.171875 113.027344 50.011719 112.351562 50.011719 C 111.777344 50.007812 111.148438 49.90625 110.957031 49.785156 C 110.726562 49.636719 110.648438 49.265625 110.730469 48.703125 C 110.796875 48.230469 111.222656 45.777344 111.667969 43.25 C 112.117188 40.726562 112.589844 38.054688 112.722656 37.320312 C 112.855469 36.582031 113.078125 35.347656 113.21875 34.574219 C 113.359375 33.804688 113.597656 32.511719 113.742188 31.707031 C 113.890625 30.898438 114.09375 29.722656 114.195312 29.089844 C 114.378906 27.941406 114.378906 27.941406 115.933594 28.027344 C 117.328125 28.105469 117.539062 28.054688 117.90625 27.527344 C 118.132812 27.199219 118.320312 26.5 118.320312 25.96875 C 118.320312 25.441406 118.421875 25.007812 118.546875 25.007812 C 118.667969 25.007812 118.835938 25.25 118.914062 25.550781 C 118.992188 25.851562 118.933594 26.742188 118.789062 27.527344 C 118.640625 28.316406 118.59375 29.589844 118.683594 30.355469 C 118.773438 31.125 119.015625 32.25 119.222656 32.859375 C 119.429688 33.464844 119.828125 34.414062 120.109375 34.964844 C 120.386719 35.515625 120.980469 36.375 121.417969 36.878906 C 121.859375 37.378906 122.578125 37.980469 123.011719 38.214844 C 123.445312 38.449219 124.203125 38.785156 124.695312 38.964844 C 125.1875 39.144531 125.789062 39.289062 126.035156 39.292969 C 126.277344 39.292969 126.480469 39.359375 126.480469 39.4375 C 126.480469 39.515625 126.132812 40.015625 125.707031 40.542969 C 125.164062 41.21875 124.863281 41.953125 124.699219 43.015625 C 124.570312 43.847656 124.328125 45.964844 124.164062 47.71875 C 124 49.472656 123.808594 51.054688 123.738281 51.238281 C 123.667969 51.417969 123.167969 51.792969 122.625 52.070312 C 121.636719 52.574219 121.636719 52.574219 121.605469 51.867188 C 121.574219 51.160156 121.574219 51.160156 121.414062 51.835938 C 121.320312 52.226562 120.699219 52.945312 119.9375 53.546875 C 119.210938 54.117188 118.527344 54.730469 118.414062 54.914062 C 118.304688 55.09375 118.660156 54.875 119.207031 54.421875 C 120.199219 53.601562 120.199219 53.601562 120.789062 54.640625 C 121.113281 55.210938 121.378906 55.78125 121.378906 55.910156 C 121.378906 56.035156 121.480469 56.136719 121.605469 56.136719 C 121.730469 56.136719 121.894531 56.339844 121.972656 56.585938 C 122.050781 56.832031 122.320312 57.371094 122.574219 57.789062 C 122.828125 58.207031 123.183594 58.703125 123.363281 58.898438 C 123.578125 59.132812 124.109375 59.21875 124.957031 59.160156 C 126.207031 59.074219 126.214844 59.078125 125.648438 59.523438 C 125.183594 59.890625 125.167969 59.941406 125.5625 59.796875 C 125.832031 59.703125 126.691406 59.246094 127.476562 58.785156 C 128.261719 58.324219 129.335938 57.644531 129.863281 57.277344 C 130.394531 56.910156 131.050781 56.164062 131.332031 55.617188 C 131.609375 55.074219 131.835938 54.421875 131.839844 54.171875 C 131.84375 53.777344 131.882812 53.765625 132.113281 54.097656 C 132.324219 54.390625 132.347656 54.3125 132.230469 53.761719 C 132.101562 53.171875 132.222656 52.898438 132.910156 52.246094 C 133.371094 51.808594 133.574219 51.546875 133.363281 51.664062 C 133.15625 51.78125 132.808594 52.023438 132.597656 52.203125 C 132.261719 52.492188 132.222656 52.28125 132.28125 50.441406 C 132.320312 49.292969 132.417969 47.292969 132.5 45.996094 C 132.582031 44.695312 132.753906 43.632812 132.886719 43.632812 C 133.019531 43.632812 133.230469 43.894531 133.355469 44.207031 C 133.484375 44.523438 133.59375 44.648438 133.605469 44.484375 C 133.613281 44.320312 133.550781 44.003906 133.464844 43.78125 C 133.378906 43.5625 133.078125 43.378906 132.796875 43.378906 C 132.390625 43.378906 132.316406 43.261719 132.4375 42.804688 C 132.523438 42.488281 132.59375 42.15625 132.597656 42.066406 C 132.597656 41.976562 133.113281 41.664062 133.746094 41.367188 C 134.375 41.070312 135.289062 40.828125 135.773438 40.828125 C 136.582031 40.828125 136.683594 40.914062 136.921875 41.785156 C 137.066406 42.3125 137.535156 44.167969 137.964844 45.910156 C 138.390625 47.652344 138.6875 49.21875 138.621094 49.394531 C 138.554688 49.566406 138.003906 49.789062 137.398438 49.886719 C 136.792969 49.988281 136.089844 50.253906 135.835938 50.476562 C 135.472656 50.796875 135.414062 51.097656 135.546875 51.914062 C 135.640625 52.484375 135.847656 53.464844 136.011719 54.097656 C 136.175781 54.726562 136.433594 55.464844 136.589844 55.734375 C 136.820312 56.128906 137.132812 56.210938 138.214844 56.171875 C 138.949219 56.148438 139.625 56.082031 139.714844 56.027344 C 139.800781 55.972656 141.019531 55.742188 142.421875 55.519531 C 143.820312 55.292969 145.597656 55 146.371094 54.867188 C 147.140625 54.734375 148.230469 54.5625 148.792969 54.488281 C 149.8125 54.347656 149.8125 54.347656 149.109375 54.738281 C 148.726562 54.957031 148.410156 55.183594 148.410156 55.246094 C 148.410156 55.308594 148.726562 55.242188 149.109375 55.097656 C 149.496094 54.949219 150.414062 54.546875 151.152344 54.203125 C 152.363281 53.632812 152.488281 53.492188 152.484375 52.75 C 152.480469 52.296875 152.273438 51.132812 152.027344 50.160156 C 151.707031 48.914062 151.390625 48.257812 150.949219 47.929688 C 150.421875 47.535156 150.167969 47.507812 149.351562 47.734375 C 148.820312 47.882812 148.136719 47.96875 147.839844 47.925781 C 147.398438 47.859375 147.207031 47.507812 146.835938 46.058594 C 146.585938 45.078125 146.097656 43.179688 145.75 41.847656 C 145.402344 40.515625 144.703125 37.816406 144.195312 35.851562 C 143.6875 33.886719 142.929688 30.957031 142.511719 29.34375 C 142.09375 27.730469 141.695312 26.179688 141.625 25.898438 C 141.53125 25.527344 141.878906 25.015625 142.914062 23.996094 C 143.96875 22.953125 144.328125 22.417969 144.328125 21.878906 C 144.328125 21.480469 144.140625 20.40625 143.910156 19.492188 C 143.628906 18.371094 143.3125 17.707031 142.9375 17.460938 C 142.449219 17.144531 142.050781 17.160156 139.722656 17.585938 C 138.257812 17.851562 135.742188 18.261719 134.128906 18.492188 C 132.515625 18.726562 129.878906 19.207031 128.269531 19.5625 C 126.660156 19.917969 124.6875 20.542969 123.882812 20.949219 C 123.078125 21.355469 122.011719 22.046875 121.507812 22.488281 C 121.007812 22.929688 120.289062 23.816406 119.914062 24.457031 C 119.230469 25.625 119.230469 25.625 118.902344 24.5 C 118.726562 23.882812 118.472656 23.273438 118.34375 23.144531 C 118.21875 23.015625 116.867188 22.816406 115.347656 22.699219 C 113.828125 22.582031 110.976562 22.359375 109.019531 22.199219 C 105.488281 21.910156 105.449219 21.914062 105 22.464844 C 104.753906 22.769531 104.550781 23.289062 104.550781 23.617188 C 104.550781 23.945312 104.453125 24.269531 104.335938 24.34375 C 104.214844 24.417969 103.855469 23.914062 103.53125 23.222656 C 103.207031 22.535156 102.800781 21.914062 102.625 21.847656 C 102.453125 21.78125 100.777344 21.644531 98.902344 21.546875 C 97.03125 21.449219 95.355469 21.292969 95.179688 21.199219 C 94.945312 21.078125 95.101562 20.648438 95.746094 19.636719 C 96.234375 18.871094 96.636719 18.175781 96.636719 18.089844 C 96.640625 18 96.203125 17.625 95.660156 17.246094 C 95.117188 16.871094 92.867188 15.152344 90.660156 13.421875 C 86.691406 10.316406 86.628906 10.277344 84.570312 9.847656 C 83.429688 9.609375 82.277344 9.347656 82.015625 9.269531 C 81.75 9.195312 81.601562 9.238281 81.683594 9.371094 C 81.765625 9.503906 82.652344 9.765625 83.652344 9.953125 C 84.65625 10.144531 85.53125 10.445312 85.601562 10.628906 C 85.671875 10.8125 85.554688 11.136719 85.339844 11.351562 C 85.125 11.566406 84.875 11.96875 84.785156 12.25 C 84.699219 12.53125 84.519531 12.757812 84.386719 12.757812 C 84.257812 12.757812 84.148438 12.871094 84.148438 13.007812 C 84.148438 13.144531 83.230469 14.667969 82.109375 16.390625 C 80.984375 18.113281 79.980469 19.636719 79.878906 19.777344 C 79.773438 19.917969 79.273438 20.71875 78.761719 21.5625 C 78.253906 22.402344 77.644531 23.476562 77.40625 23.941406 C 77.171875 24.410156 76.917969 25.554688 76.84375 26.492188 C 76.753906 27.613281 76.828125 28.546875 77.0625 29.21875 C 77.394531 30.179688 77.378906 30.292969 76.773438 31.230469 C 76.128906 32.222656 76.128906 32.222656 75.515625 30.847656 C 75.179688 30.089844 74.339844 28.09375 73.652344 26.410156 C 72.847656 24.445312 72.445312 23.121094 72.527344 22.710938 C 72.597656 22.359375 72.589844 22.222656 72.511719 22.410156 C 72.429688 22.59375 71.625 20.929688 70.722656 18.710938 C 69.820312 16.488281 68.855469 14.097656 68.578125 13.398438 C 68.300781 12.695312 67.8125 11.605469 67.492188 10.972656 C 66.992188 9.992188 66.71875 9.761719 65.648438 9.410156 C 64.953125 9.179688 63.929688 8.925781 63.367188 8.835938 C 62.347656 8.679688 62.347656 8.679688 63.496094 9.175781 M 57.917969 12.757812 C 57.894531 12.96875 57.8125 13.429688 57.738281 13.78125 C 57.613281 14.332031 57.632812 14.355469 57.882812 13.964844 C 58.042969 13.714844 58.125 13.253906 58.0625 12.941406 C 58.003906 12.632812 57.9375 12.546875 57.917969 12.757812 M 87.824219 13.722656 C 87.390625 14.386719 85.917969 16.628906 84.558594 18.710938 C 83.195312 20.792969 82.117188 22.597656 82.160156 22.722656 C 82.203125 22.851562 82.484375 22.582031 82.785156 22.128906 C 83.089844 21.675781 84.191406 19.988281 85.234375 18.371094 C 86.277344 16.757812 87.550781 14.777344 88.058594 13.96875 C 88.570312 13.164062 88.902344 12.507812 88.800781 12.511719 C 88.695312 12.511719 88.257812 13.058594 87.824219 13.722656 M 89.171875 17.671875 C 88.144531 19.25 86.699219 21.492188 85.953125 22.65625 C 85.207031 23.820312 84.652344 24.828125 84.71875 24.894531 C 84.785156 24.960938 86.214844 22.859375 87.898438 20.226562 C 89.578125 17.59375 91.039062 15.292969 91.136719 15.117188 C 91.238281 14.945312 91.253906 14.800781 91.175781 14.800781 C 91.097656 14.800781 90.195312 16.09375 89.171875 17.671875 M 57.355469 17.160156 C 57.332031 19.011719 57.332031 19.011719 56.820312 17.894531 C 56.308594 16.777344 56.308594 16.777344 54.863281 16.945312 C 54.070312 17.039062 52.390625 17.351562 51.128906 17.640625 C 49.867188 17.929688 48.703125 18.332031 48.542969 18.535156 C 48.382812 18.738281 48.113281 19.847656 47.949219 21 C 47.78125 22.152344 47.433594 24.183594 47.171875 25.515625 C 46.910156 26.851562 46.507812 29.261719 46.273438 30.875 C 46.042969 32.488281 45.867188 34.269531 45.886719 34.828125 C 45.90625 35.425781 45.828125 35.742188 45.699219 35.59375 C 45.578125 35.457031 45.15625 34.59375 44.765625 33.683594 C 44.371094 32.769531 43.320312 30.550781 42.425781 28.753906 C 41.53125 26.953125 40.800781 25.421875 40.800781 25.34375 C 40.800781 25.269531 41.039062 25.476562 41.328125 25.808594 C 41.855469 26.410156 41.855469 26.410156 41.410156 25.59375 C 41.164062 25.144531 40.851562 24.847656 40.714844 24.933594 C 40.578125 25.015625 40.546875 24.957031 40.644531 24.800781 C 40.738281 24.644531 40.335938 23.734375 39.746094 22.78125 C 39.15625 21.832031 38.519531 20.867188 38.332031 20.644531 C 38.019531 20.277344 37.628906 20.316406 34.035156 21.066406 C 31.859375 21.519531 29.910156 22.03125 29.703125 22.203125 C 29.496094 22.375 29.324219 22.765625 29.324219 23.070312 C 29.324219 23.488281 28.984375 23.792969 27.945312 24.300781 C 27.1875 24.671875 26.257812 25.386719 25.875 25.886719 C 25.496094 26.386719 24.574219 28.050781 23.828125 29.582031 C 22.980469 31.328125 22.222656 32.535156 21.808594 32.808594 C 21.296875 33.144531 20.800781 33.210938 19.605469 33.101562 C 18.757812 33.023438 18.003906 32.902344 17.929688 32.824219 C 17.851562 32.75 17.914062 32.335938 18.0625 31.910156 C 18.214844 31.476562 18.230469 31.132812 18.101562 31.132812 C 17.976562 31.132812 17.796875 31.53125 17.707031 32.023438 C 17.609375 32.535156 17.386719 32.917969 17.183594 32.917969 C 16.988281 32.917969 16.828125 32.859375 16.828125 32.785156 C 16.828125 32.710938 17.066406 31.765625 17.355469 30.679688 C 17.644531 29.59375 18.054688 28.097656 18.269531 27.347656 C 18.585938 26.257812 18.746094 26.023438 19.085938 26.164062 C 19.316406 26.261719 19.992188 26.398438 20.585938 26.472656 C 21.449219 26.578125 21.699219 26.515625 21.832031 26.167969 C 21.953125 25.851562 22.054688 25.816406 22.191406 26.039062 C 22.300781 26.210938 22.519531 25.535156 22.695312 24.5 C 22.980469 22.796875 22.96875 22.617188 22.53125 22.195312 C 22.269531 21.941406 21.253906 21.5625 20.273438 21.355469 C 19.289062 21.144531 16.734375 20.566406 14.585938 20.066406 C 12.441406 19.5625 10.582031 19.089844 10.449219 19.007812 C 10.316406 18.925781 9.984375 18.980469 9.703125 19.128906 C 9.390625 19.296875 9 20.039062 8.679688 21.082031 C 8.300781 22.3125 8.167969 23.394531 8.195312 25.097656 C 8.230469 27.429688 8.230469 27.429688 8.480469 25.695312 C 8.664062 24.4375 8.824219 23.992188 9.066406 24.082031 C 9.25 24.152344 9.816406 24.289062 10.324219 24.386719 C 11.046875 24.519531 11.214844 24.652344 11.085938 24.972656 C 10.992188 25.203125 10.753906 26.019531 10.550781 26.792969 C 10.347656 27.566406 10.121094 28.398438 10.046875 28.644531 C 9.96875 28.894531 9.660156 29.089844 9.339844 29.089844 C 9.027344 29.089844 8.617188 28.945312 8.429688 28.769531 C 8.152344 28.515625 8.121094 28.515625 8.273438 28.785156 C 8.378906 28.96875 8.734375 29.222656 9.0625 29.347656 C 9.636719 29.566406 9.644531 29.613281 9.308594 30.542969 C 9.117188 31.078125 8.480469 33.179688 7.894531 35.214844 C 7.308594 37.25 6.433594 40.230469 5.953125 41.839844 C 5.46875 43.449219 5.023438 44.816406 4.960938 44.878906 C 4.894531 44.945312 4.300781 44.871094 3.632812 44.714844 C 2.65625 44.488281 2.3125 44.503906 1.859375 44.796875 C 1.492188 45.035156 1.113281 45.785156 0.761719 46.964844 C 0.289062 48.554688 0.253906 49.039062 0.460938 51.113281 C 0.695312 53.457031 0.695312 53.457031 0.730469 51.757812 C 0.765625 50.058594 0.765625 50.058594 1.464844 50.273438 C 1.851562 50.390625 3.542969 50.734375 5.226562 51.035156 C 6.910156 51.332031 8.804688 51.679688 9.433594 51.804688 C 10.066406 51.925781 11.195312 52.148438 11.941406 52.296875 C 12.6875 52.445312 13.640625 52.566406 14.058594 52.566406 C 14.691406 52.566406 14.878906 52.410156 15.214844 51.609375 C 15.433594 51.082031 15.699219 50.59375 15.800781 50.523438 C 15.90625 50.453125 16.066406 49.804688 16.160156 49.082031 C 16.292969 48.050781 16.242188 47.675781 15.925781 47.359375 C 15.703125 47.132812 15.304688 46.953125 15.046875 46.953125 C 14.785156 46.953125 14.390625 46.769531 14.171875 46.550781 C 13.804688 46.1875 13.769531 46.1875 13.769531 46.550781 C 13.769531 46.769531 13.664062 46.953125 13.53125 46.953125 C 13.398438 46.953125 13.230469 46.851562 13.152344 46.730469 C 13.078125 46.609375 13.417969 45.089844 13.90625 43.351562 C 14.390625 41.613281 14.910156 39.757812 15.054688 39.234375 C 15.203125 38.707031 15.453125 38.277344 15.609375 38.277344 C 15.769531 38.277344 16.253906 38.386719 16.683594 38.523438 C 17.113281 38.65625 17.773438 38.828125 18.148438 38.90625 C 18.523438 38.980469 19.183594 39.339844 19.617188 39.703125 C 20.398438 40.363281 20.398438 40.363281 20.402344 46.015625 C 20.402344 51.289062 20.4375 51.730469 20.929688 52.539062 C 21.222656 53.019531 21.710938 53.613281 22.015625 53.863281 C 22.320312 54.117188 23.140625 54.605469 23.84375 54.949219 C 24.542969 55.296875 25.636719 55.65625 26.265625 55.75 C 27.183594 55.886719 27.523438 55.828125 27.949219 55.457031 C 28.246094 55.199219 28.671875 54.625 28.902344 54.175781 C 29.132812 53.730469 29.441406 53.289062 29.589844 53.199219 C 29.761719 53.089844 29.804688 53.285156 29.710938 53.757812 C 29.628906 54.152344 29.867188 53.707031 30.238281 52.757812 C 30.609375 51.8125 30.847656 50.871094 30.765625 50.660156 C 30.6875 50.453125 30.191406 50.105469 29.664062 49.882812 C 29.136719 49.664062 28.5 49.296875 28.25 49.070312 C 27.855469 48.714844 27.792969 48.195312 27.792969 45.191406 C 27.792969 43.28125 27.671875 41.292969 27.527344 40.769531 C 27.320312 40.023438 27.347656 39.660156 27.65625 39.0625 C 27.875 38.644531 28.050781 38.210938 28.050781 38.097656 C 28.046875 37.984375 27.8125 38.28125 27.523438 38.757812 C 26.996094 39.621094 26.996094 39.621094 26 38.5 C 25.453125 37.886719 25 37.3125 24.996094 37.222656 C 24.992188 37.136719 25.316406 37 25.71875 36.917969 C 26.121094 36.835938 26.820312 36.457031 27.277344 36.074219 C 27.730469 35.691406 28.425781 34.679688 28.816406 33.828125 C 29.207031 32.976562 29.722656 31.761719 29.957031 31.132812 C 30.195312 30.5 30.566406 29.785156 30.78125 29.542969 C 31 29.300781 31.277344 29.164062 31.398438 29.238281 C 31.519531 29.3125 31.621094 29.246094 31.621094 29.085938 C 31.621094 28.929688 31.488281 28.550781 31.328125 28.242188 C 31.164062 27.9375 30.910156 27.605469 30.753906 27.503906 C 30.570312 27.386719 30.5625 27.242188 30.730469 27.078125 C 30.867188 26.945312 31.382812 26.761719 31.875 26.675781 C 32.75 26.523438 32.785156 26.550781 33.757812 28.195312 C 34.300781 29.117188 34.875 30.242188 35.035156 30.691406 C 35.195312 31.144531 35.65625 32.089844 36.054688 32.789062 C 36.457031 33.492188 37.15625 34.695312 37.613281 35.46875 C 38.066406 36.242188 38.929688 37.792969 39.53125 38.914062 C 40.132812 40.035156 41.308594 41.914062 42.144531 43.082031 C 43.519531 45.003906 43.628906 45.25 43.273438 45.605469 C 43.054688 45.824219 42.285156 46.058594 41.558594 46.128906 C 40.835938 46.199219 39.617188 46.105469 38.851562 45.921875 C 37.671875 45.640625 37.410156 45.644531 37.121094 45.953125 C 36.933594 46.152344 36.480469 47.234375 36.113281 48.355469 C 35.746094 49.480469 35.445312 50.578125 35.445312 50.800781 C 35.445312 51.023438 36.335938 52.121094 37.421875 53.238281 C 38.507812 54.359375 39.050781 54.867188 38.625 54.367188 C 38.199219 53.867188 37.65625 53.222656 37.421875 52.9375 C 36.992188 52.417969 36.996094 52.414062 39.445312 52.523438 C 40.859375 52.585938 42.5 52.496094 43.324219 52.316406 C 44.109375 52.144531 45.433594 51.664062 46.261719 51.246094 C 47.09375 50.828125 48.140625 50.121094 48.589844 49.671875 C 49.035156 49.222656 49.703125 48.285156 50.066406 47.585938 C 50.429688 46.886719 50.898438 45.394531 51.109375 44.273438 C 51.324219 43.148438 51.898438 39.359375 52.394531 35.851562 C 52.886719 32.34375 53.464844 28.265625 53.675781 26.792969 C 53.886719 25.320312 54.121094 23.640625 54.199219 23.0625 C 54.332031 22.058594 54.382812 22.003906 55.355469 21.871094 C 55.917969 21.796875 56.550781 21.589844 56.761719 21.414062 C 57.046875 21.179688 57.109375 20.8125 57 20.050781 C 56.851562 19.011719 56.851562 19.011719 57.199219 19.777344 C 57.519531 20.488281 57.546875 20.355469 57.597656 17.925781 C 57.625 16.488281 57.585938 15.308594 57.511719 15.308594 C 57.4375 15.308594 57.367188 16.144531 57.355469 17.160156 M 75.636719 17.222656 C 75.410156 17.574219 75.039062 18.175781 74.8125 18.5625 C 74.398438 19.265625 74.398438 19.265625 74.914062 18.644531 C 75.195312 18.304688 75.617188 17.699219 75.851562 17.304688 C 76.082031 16.910156 76.222656 16.585938 76.160156 16.585938 C 76.097656 16.585938 75.863281 16.875 75.636719 17.222656 M 93.3125 17.128906 C 93.152344 17.425781 91.933594 19.351562 90.605469 21.402344 C 89.277344 23.457031 87.957031 25.460938 87.675781 25.855469 C 87.394531 26.253906 87.214844 26.628906 87.277344 26.691406 C 87.339844 26.753906 87.519531 26.652344 87.671875 26.46875 C 87.828125 26.28125 88.796875 24.816406 89.828125 23.207031 C 90.859375 21.601562 92.242188 19.453125 92.898438 18.4375 C 93.554688 17.417969 93.980469 16.585938 93.847656 16.585938 C 93.714844 16.585938 93.472656 16.832031 93.3125 17.128906 M 142.097656 23.289062 C 141.367188 23.464844 141.019531 23.679688 141.03125 23.957031 C 141.042969 24.183594 141.132812 24.578125 141.234375 24.832031 C 141.394531 25.246094 141.476562 25.21875 142.042969 24.570312 C 142.390625 24.171875 142.832031 23.648438 143.023438 23.40625 C 143.214844 23.164062 143.328125 22.980469 143.277344 22.996094 C 143.226562 23.011719 142.695312 23.144531 142.097656 23.289062 M 103.019531 24.074219 C 103.019531 24.40625 102.886719 25.066406 102.722656 25.542969 C 102.558594 26.019531 102.300781 26.496094 102.148438 26.605469 C 101.996094 26.710938 101.289062 26.726562 100.574219 26.644531 C 99.277344 26.488281 99.277344 26.488281 98.710938 29.382812 C 98.402344 30.976562 98.085938 32.582031 98.011719 32.953125 C 97.878906 33.597656 97.933594 33.636719 99.363281 33.890625 C 100.597656 34.109375 100.902344 34.089844 101.144531 33.777344 C 101.308594 33.570312 101.476562 33.515625 101.527344 33.660156 C 101.578125 33.800781 102.550781 33.996094 103.6875 34.089844 C 105.761719 34.261719 105.761719 34.261719 106.054688 32.570312 C 106.320312 31.039062 106.300781 30.789062 105.84375 29.921875 C 105.398438 29.078125 105.335938 29.035156 105.328125 29.578125 C 105.320312 29.917969 105.242188 30.125 105.15625 30.039062 C 105.070312 29.949219 105.082031 29.558594 105.179688 29.164062 C 105.359375 28.453125 105.359375 28.453125 105.855469 29.410156 C 106.125 29.933594 106.445312 30.367188 106.5625 30.367188 C 106.679688 30.367188 106.847656 29.933594 106.9375 29.410156 C 107.023438 28.882812 107.09375 28.136719 107.097656 27.75 C 107.101562 27.089844 107.03125 27.046875 105.984375 27.046875 C 105.324219 27.046875 104.742188 26.898438 104.5625 26.679688 C 104.394531 26.476562 104.285156 26.105469 104.320312 25.851562 C 104.355469 25.597656 104.171875 24.960938 103.910156 24.433594 C 103.648438 23.90625 103.34375 23.476562 103.226562 23.476562 C 103.113281 23.476562 103.019531 23.746094 103.019531 24.074219 M 130.941406 25.652344 C 130.800781 25.703125 130.21875 25.867188 129.644531 26.011719 C 129.070312 26.160156 128.371094 26.480469 128.089844 26.726562 C 127.808594 26.972656 127.445312 27.425781 127.285156 27.734375 C 127.121094 28.039062 126.988281 28.585938 126.988281 28.945312 C 126.988281 29.304688 127.089844 29.601562 127.210938 29.601562 C 127.332031 29.601562 127.378906 29.871094 127.3125 30.203125 C 127.25 30.535156 127.433594 31.265625 127.722656 31.828125 C 128.007812 32.390625 128.578125 33.136719 128.988281 33.480469 C 129.398438 33.828125 130.261719 34.257812 130.90625 34.4375 C 131.875 34.710938 132.328125 34.703125 133.550781 34.410156 C 134.613281 34.152344 134.996094 33.949219 134.929688 33.675781 C 134.882812 33.46875 134.675781 32.609375 134.480469 31.769531 C 134.28125 30.925781 134.015625 29.894531 133.894531 29.472656 C 133.773438 29.050781 133.523438 27.988281 133.339844 27.113281 C 133.003906 25.515625 133.003906 25.515625 132.101562 25.539062 C 131.605469 25.546875 131.082031 25.601562 130.941406 25.652344 M 91.140625 26.464844 C 90.933594 26.789062 90.964844 27.078125 91.269531 27.609375 C 91.492188 27.996094 91.816406 28.371094 91.992188 28.441406 C 92.207031 28.523438 92.308594 28.285156 92.308594 27.699219 C 92.308594 27.222656 92.378906 26.652344 92.464844 26.429688 C 92.578125 26.132812 92.460938 26.027344 92.015625 26.027344 C 91.6875 26.027344 91.292969 26.222656 91.140625 26.464844 M 59.167969 27.1875 C 59.175781 27.320312 59.351562 27.71875 59.5625 28.070312 C 59.945312 28.707031 59.945312 28.707031 59.78125 28.070312 C 59.6875 27.71875 59.511719 27.320312 59.386719 27.1875 C 59.242188 27.035156 59.164062 27.035156 59.167969 27.1875 M 89.40625 29.441406 C 88.757812 30.476562 87.78125 31.730469 87.230469 32.230469 C 86.613281 32.789062 85.664062 33.300781 84.746094 33.566406 C 83.925781 33.808594 83.117188 34.039062 82.949219 34.085938 C 82.777344 34.132812 82.015625 35.136719 81.25 36.320312 C 80.488281 37.503906 79.738281 38.703125 79.589844 38.988281 C 79.382812 39.375 79.40625 39.769531 79.679688 40.554688 C 79.882812 41.132812 80.21875 41.972656 80.425781 42.429688 C 80.632812 42.882812 81.332031 44.570312 81.976562 46.1875 C 82.621094 47.800781 83.277344 49.40625 83.433594 49.757812 C 83.699219 50.351562 83.742188 50.277344 84.0625 48.738281 C 84.261719 47.792969 84.601562 46.933594 84.855469 46.742188 C 85.160156 46.511719 85.703125 46.457031 86.589844 46.5625 C 87.882812 46.722656 87.882812 46.722656 88.714844 42.816406 C 89.167969 40.671875 89.878906 37.363281 90.285156 35.46875 C 90.695312 33.574219 91.195312 31.285156 91.394531 30.386719 C 91.710938 28.941406 91.710938 28.679688 91.367188 28.152344 C 91.152344 27.824219 90.886719 27.558594 90.777344 27.558594 C 90.667969 27.558594 90.050781 28.40625 89.40625 29.441406 M 42.789062 28.515625 C 42.890625 28.761719 43.464844 29.910156 44.058594 31.066406 C 44.652344 32.226562 45.199219 33.171875 45.269531 33.171875 C 45.335938 33.171875 44.820312 32.023438 44.113281 30.621094 C 43.410156 29.21875 42.78125 28.070312 42.71875 28.070312 C 42.652344 28.070312 42.6875 28.269531 42.789062 28.515625 M 128.519531 29.308594 C 128.519531 29.429688 128.789062 29.476562 129.113281 29.414062 C 129.640625 29.316406 129.757812 29.457031 130.121094 30.664062 C 130.367188 31.46875 130.472656 31.660156 130.386719 31.132812 C 130.304688 30.640625 130.144531 29.980469 130.023438 29.664062 C 129.878906 29.277344 129.597656 29.089844 129.164062 29.089844 C 128.808594 29.089844 128.519531 29.1875 128.519531 29.308594 M 33.59375 31.816406 C 33.527344 31.929688 33.40625 32.367188 33.324219 32.789062 C 33.171875 33.550781 33.171875 33.550781 33.554688 32.695312 C 33.769531 32.222656 33.890625 31.785156 33.824219 31.722656 C 33.761719 31.660156 33.65625 31.699219 33.59375 31.816406 M 55.726562 33.339844 C 55.636719 34.019531 55.457031 35.273438 55.324219 36.128906 C 55.1875 36.980469 55.078125 37.832031 55.078125 38.019531 C 55.078125 38.207031 55.128906 38.3125 55.191406 38.25 C 55.25 38.191406 55.488281 36.84375 55.722656 35.253906 C 55.957031 33.667969 56.085938 32.308594 56.015625 32.238281 C 55.941406 32.164062 55.8125 32.660156 55.726562 33.339844 M 116.117188 32.785156 C 116.03125 33.011719 116.035156 33.265625 116.121094 33.355469 C 116.207031 33.441406 116.296875 33.292969 116.316406 33.023438 C 116.335938 32.753906 116.433594 32.992188 116.535156 33.554688 C 116.71875 34.574219 116.71875 34.574219 116.753906 33.632812 C 116.773438 33.117188 116.675781 32.621094 116.535156 32.535156 C 116.390625 32.445312 116.207031 32.558594 116.117188 32.785156 M 63.183594 34.773438 C 63.773438 35.375 64.628906 36.070312 65.085938 36.316406 C 65.875 36.746094 65.886719 36.746094 65.28125 36.316406 C 64.929688 36.070312 64.140625 35.375 63.523438 34.777344 C 62.910156 34.175781 62.339844 33.683594 62.261719 33.683594 C 62.179688 33.683594 62.597656 34.175781 63.183594 34.773438 M 29.640625 34.511719 C 29.5 34.6875 29.078125 35.445312 28.699219 36.195312 C 28.324219 36.945312 28.054688 37.597656 28.101562 37.644531 C 28.144531 37.691406 28.597656 36.933594 29.101562 35.960938 C 29.605469 34.988281 29.992188 34.191406 29.957031 34.191406 C 29.925781 34.191406 29.78125 34.335938 29.640625 34.511719 M 115.515625 35.945312 C 115.515625 36.066406 115.339844 37.175781 115.125 38.40625 C 114.910156 39.636719 114.78125 40.6875 114.835938 40.742188 C 114.890625 40.796875 115.058594 40.179688 115.207031 39.367188 C 115.359375 38.558594 115.558594 37.40625 115.648438 36.808594 C 115.738281 36.210938 115.746094 35.722656 115.664062 35.722656 C 115.582031 35.722656 115.515625 35.824219 115.515625 35.945312 M 65.945312 38.148438 C 65.71875 38.5 65.347656 39.101562 65.121094 39.488281 C 64.710938 40.191406 64.710938 40.191406 65.222656 39.570312 C 65.503906 39.226562 65.925781 38.625 66.160156 38.230469 C 66.394531 37.832031 66.53125 37.511719 66.472656 37.511719 C 66.410156 37.511719 66.171875 37.796875 65.945312 38.148438 M 118.519531 39.167969 C 118.664062 39.449219 119.109375 39.964844 119.507812 40.316406 C 120.234375 40.953125 120.234375 40.953125 119.46875 40.0625 C 119.050781 39.570312 118.605469 39.054688 118.480469 38.914062 C 118.359375 38.773438 118.375 38.886719 118.519531 39.167969 M 121.4375 41.585938 C 121.679688 41.742188 122.339844 42.03125 122.902344 42.230469 C 123.46875 42.429688 123.929688 42.496094 123.929688 42.378906 C 123.929688 42.261719 123.441406 42.027344 122.847656 41.863281 C 122.25 41.699219 121.589844 41.507812 121.378906 41.4375 C 121.136719 41.355469 121.160156 41.410156 121.4375 41.585938 M 42.96875 42.160156 C 42.546875 42.308594 42.167969 42.457031 42.121094 42.496094 C 42.078125 42.535156 42.464844 43.15625 42.984375 43.878906 C 43.503906 44.605469 44.015625 45.105469 44.117188 44.988281 C 44.21875 44.875 44.429688 44.390625 44.589844 43.914062 C 44.75 43.4375 44.878906 42.777344 44.878906 42.449219 C 44.878906 41.988281 44.746094 41.851562 44.304688 41.867188 C 43.992188 41.878906 43.386719 42.011719 42.96875 42.160156 M 14.566406 43.660156 C 14.40625 44.109375 14.289062 44.601562 14.296875 44.757812 C 14.308594 44.910156 14.480469 44.589844 14.679688 44.039062 C 14.882812 43.492188 15.003906 42.996094 14.949219 42.941406 C 14.894531 42.886719 14.722656 43.210938 14.566406 43.660156 M 54.179688 44.261719 C 54.078125 45.050781 54.054688 45.753906 54.121094 45.820312 C 54.1875 45.890625 54.320312 45.292969 54.414062 44.5 C 54.507812 43.703125 54.53125 43 54.46875 42.9375 C 54.40625 42.875 54.277344 43.472656 54.179688 44.261719 M 62.570312 43.441406 C 62.46875 43.617188 62.21875 44.050781 62.019531 44.398438 C 61.671875 45.011719 61.671875 45.015625 62.085938 44.527344 C 62.320312 44.246094 62.621094 43.816406 62.757812 43.570312 C 62.894531 43.324219 62.949219 43.125 62.882812 43.125 C 62.816406 43.125 62.675781 43.269531 62.570312 43.441406 M 99.289062 43.5 C 99.210938 43.703125 99.207031 44.019531 99.277344 44.199219 C 99.359375 44.402344 99.417969 44.355469 99.429688 44.074219 C 99.441406 43.824219 99.707031 43.515625 100.023438 43.386719 C 100.597656 43.15625 100.597656 43.15625 100.015625 43.140625 C 99.695312 43.132812 99.371094 43.292969 99.289062 43.5 M 101.257812 43.46875 C 101.316406 43.519531 101.796875 43.628906 102.324219 43.710938 C 102.898438 43.800781 103.226562 43.761719 103.136719 43.621094 C 103.058594 43.488281 102.574219 43.378906 102.070312 43.378906 C 101.5625 43.378906 101.199219 43.421875 101.257812 43.46875 M 122.257812 44.519531 C 122.054688 45.007812 121.898438 45.609375 121.90625 45.859375 C 121.921875 46.253906 121.949219 46.246094 122.125 45.804688 C 122.238281 45.523438 122.449219 44.917969 122.597656 44.464844 C 122.746094 44.007812 122.8125 43.632812 122.746094 43.632812 C 122.683594 43.632812 122.460938 44.03125 122.257812 44.519531 M 113.886719 45.484375 C 113.824219 45.800781 113.644531 46.847656 113.484375 47.8125 C 113.328125 48.777344 113.246094 49.613281 113.304688 49.671875 C 113.363281 49.734375 113.550781 49 113.714844 48.046875 C 113.882812 47.09375 114.078125 45.996094 114.148438 45.613281 C 114.222656 45.226562 114.214844 44.910156 114.136719 44.910156 C 114.058594 44.910156 113.945312 45.167969 113.886719 45.484375 M 19.703125 46.441406 C 19.703125 47.074219 19.753906 47.332031 19.816406 47.015625 C 19.875 46.699219 19.875 46.183594 19.816406 45.867188 C 19.753906 45.550781 19.703125 45.808594 19.703125 46.441406 M 53.6875 47.347656 C 53.589844 47.996094 53.570312 48.585938 53.640625 48.65625 C 53.710938 48.726562 53.847656 48.253906 53.945312 47.601562 C 54.042969 46.949219 54.0625 46.359375 53.992188 46.289062 C 53.925781 46.21875 53.785156 46.695312 53.6875 47.347656 M 59.765625 47.78125 C 59.664062 47.957031 59.414062 48.386719 59.214844 48.738281 C 58.867188 49.351562 58.867188 49.355469 59.28125 48.867188 C 59.515625 48.585938 59.816406 48.15625 59.953125 47.910156 C 60.085938 47.664062 60.144531 47.460938 60.078125 47.460938 C 60.007812 47.460938 59.871094 47.605469 59.765625 47.78125 M 134.402344 48.484375 C 134.394531 48.695312 134.5 49.269531 134.640625 49.757812 C 134.863281 50.542969 134.828125 50.703125 134.320312 51.105469 C 133.746094 51.558594 133.746094 51.558594 134.449219 51.253906 C 134.835938 51.089844 135.148438 50.828125 135.144531 50.675781 C 135.144531 50.523438 134.980469 49.878906 134.78125 49.25 C 134.582031 48.617188 134.410156 48.273438 134.402344 48.484375 M 121.703125 49.503906 C 121.703125 50.136719 121.753906 50.394531 121.816406 50.078125 C 121.875 49.761719 121.875 49.246094 121.816406 48.929688 C 121.753906 48.613281 121.703125 48.871094 121.703125 49.503906 M 19.472656 52.054688 C 19.472656 53.527344 19.515625 54.132812 19.566406 53.394531 C 19.621094 52.65625 19.621094 51.453125 19.566406 50.714844 C 19.515625 49.980469 19.472656 50.582031 19.472656 52.054688 M 57.980469 50.589844 C 57.878906 50.761719 57.628906 51.195312 57.429688 51.542969 C 57.082031 52.15625 57.082031 52.164062 57.496094 51.671875 C 57.730469 51.390625 58.03125 50.960938 58.167969 50.714844 C 58.300781 50.46875 58.359375 50.269531 58.292969 50.269531 C 58.226562 50.269531 58.085938 50.414062 57.980469 50.589844 M 52.40625 51.695312 C 52.144531 52.1875 51.515625 52.957031 51.015625 53.40625 C 50.511719 53.855469 49.816406 54.429688 49.46875 54.679688 C 48.871094 55.105469 48.867188 55.113281 49.429688 54.847656 C 49.757812 54.691406 50.472656 54.160156 51.015625 53.667969 C 51.5625 53.175781 52.253906 52.375 52.554688 51.890625 C 52.851562 51.40625 53.050781 50.960938 52.992188 50.902344 C 52.9375 50.847656 52.671875 51.203125 52.40625 51.695312 M 85.277344 52.753906 C 85.6875 53.210938 86.082031 53.523438 86.148438 53.457031 C 86.21875 53.386719 86.226562 53.300781 86.167969 53.265625 C 86.109375 53.230469 85.71875 52.917969 85.296875 52.566406 C 84.53125 51.929688 84.53125 51.929688 85.277344 52.753906 M 14.796875 55.089844 C 14.53125 56.074219 14.457031 56.140625 13.570312 56.152344 C 12.722656 56.167969 12.6875 56.195312 13.214844 56.40625 C 13.589844 56.558594 13.980469 56.554688 14.277344 56.394531 C 14.539062 56.253906 14.882812 55.730469 15.050781 55.230469 C 15.214844 54.726562 15.289062 54.257812 15.214844 54.179688 C 15.140625 54.105469 14.953125 54.515625 14.796875 55.089844 M 20.128906 56.308594 C 20.277344 56.613281 20.824219 57.21875 21.347656 57.648438 C 21.871094 58.082031 22.417969 58.433594 22.558594 58.433594 C 22.699219 58.433594 22.398438 58.152344 21.890625 57.808594 C 21.382812 57.460938 20.71875 56.859375 20.414062 56.46875 C 20.039062 55.980469 19.945312 55.929688 20.128906 56.308594 M 42.015625 56.0625 C 42.332031 56.125 42.789062 56.121094 43.035156 56.058594 C 43.277344 55.996094 43.019531 55.945312 42.457031 55.945312 C 41.898438 55.949219 41.695312 56.003906 42.015625 56.0625 M 96.644531 56.394531 C 96.996094 56.503906 97.453125 56.605469 97.664062 56.617188 C 98.003906 56.636719 98.003906 56.613281 97.664062 56.394531 C 97.453125 56.257812 96.996094 56.15625 96.644531 56.167969 C 96.007812 56.1875 96.007812 56.1875 96.644531 56.394531 M 115.429688 56.984375 C 115.320312 57.523438 115.179688 58.152344 115.113281 58.390625 C 115.050781 58.625 115.175781 58.429688 115.398438 57.957031 C 115.617188 57.484375 115.757812 56.851562 115.710938 56.554688 C 115.652344 56.175781 115.566406 56.308594 115.429688 56.984375 M 132.722656 56.476562 C 132.796875 56.734375 132.855469 57.046875 132.855469 57.171875 C 132.855469 57.300781 133.113281 57.566406 133.429688 57.769531 C 133.84375 58.03125 134.285156 58.078125 135.023438 57.929688 C 136.042969 57.726562 136.042969 57.726562 134.703125 57.699219 C 133.457031 57.671875 133.339844 57.613281 132.980469 56.839844 C 132.765625 56.382812 132.652344 56.21875 132.722656 56.476562 M 75.988281 57.257812 C 75.988281 57.355469 76.164062 57.777344 76.378906 58.191406 C 76.59375 58.605469 76.824219 58.945312 76.894531 58.945312 C 76.964844 58.945312 76.832031 58.570312 76.601562 58.117188 C 76.371094 57.660156 76.136719 57.238281 76.085938 57.179688 C 76.03125 57.121094 75.988281 57.15625 75.988281 57.257812 M 119.058594 57.605469 C 119.191406 57.851562 119.484375 58.28125 119.710938 58.5625 C 120.039062 58.972656 120.027344 58.886719 119.664062 58.121094 C 119.414062 57.597656 119.121094 57.167969 119.011719 57.164062 C 118.902344 57.160156 118.921875 57.359375 119.058594 57.605469 M 27.292969 58.292969 C 26.898438 58.933594 26.535156 59.195312 25.933594 59.269531 C 25.117188 59.375 25.117188 59.375 25.929688 59.414062 C 26.550781 59.445312 26.851562 59.292969 27.226562 58.753906 C 27.492188 58.367188 27.792969 57.910156 27.894531 57.734375 C 27.996094 57.558594 28.023438 57.414062 27.957031 57.414062 C 27.890625 57.414062 27.59375 57.808594 27.292969 58.292969 M 106.355469 57.761719 C 106.414062 57.808594 106.835938 57.921875 107.292969 58.007812 C 107.765625 58.097656 108.121094 58.0625 108.121094 57.917969 C 108.121094 57.78125 107.699219 57.667969 107.183594 57.667969 C 106.671875 57.667969 106.296875 57.710938 106.355469 57.761719 "/>
</g>
</svg>
